PathFileType	4	(X/Y/Z)	F:\Vicon\SynologyDrive\Marcel_BSc\Ayumi_25_09_2024\25-09-2024\conventional_dl_80kg03.trc
DataRate	CameraRate	NumFrames	NumMarkers	Units	OrigDataRate	OrigDataStartFrame	OrigNumFrames
200.0	200.0	146	1	mm	200.0	351	2801	
Frame#	Time	RBAR			
		X1	Y1	Z1	
351	1.745	185.40872	246.89549	-1697.8285
352	1.75	185.40384	246.89577	-1697.827
353	1.755	185.41075	246.89386	-1697.8243
354	1.76	185.41086	246.89488	-1697.8279
355	1.765	185.41599	246.89539	-1697.828
356	1.77	185.41075	246.89191	-1697.83
357	1.775	185.41006	246.88994	-1697.833
358	1.78	185.40862	246.89389	-1697.8328
359	1.785	185.41273	246.88727	-1697.8286
360	1.79	185.40605	246.88612	-1697.8367
361	1.795	185.40302	246.88788	-1697.8364
362	1.8	185.40437	246.89471	-1697.839
363	1.805	185.4019	246.88971	-1697.8325
364	1.81	185.40884	246.88867	-1697.8369
365	1.815	185.40701	246.89394	-1697.834
366	1.82	185.40623	246.89014	-1697.8337
367	1.825	185.40297	246.89931	-1697.835
368	1.83	185.41228	246.89236	-1697.832
369	1.835	185.40741	246.90428	-1697.8365
370	1.84	185.40952	246.89471	-1697.8282
371	1.845	185.40987	246.89662	-1697.8308
372	1.85	185.40785	246.89653	-1697.8334
373	1.855	185.41452	246.89343	-1697.8324
374	1.86	185.41312	246.90092	-1697.8427
375	1.865	185.41194	246.89841	-1697.8439
376	1.87	185.41269	246.89874	-1697.8403
377	1.875	185.4136	246.89459	-1697.8413
378	1.88	185.41492	246.89824	-1697.8381
379	1.885	185.41402	246.89896	-1697.8317
380	1.89	185.41579	246.89375	-1697.8267
381	1.895	185.40967	246.90195	-1697.8329
382	1.9	185.41577	246.90123	-1697.8319
383	1.905	185.41978	246.90048	-1697.8354
384	1.91	185.41479	246.9021	-1697.8384
385	1.915	185.41277	246.9012	-1697.8319
386	1.92	185.41315	246.89241	-1697.832
387	1.925	185.40637	246.89725	-1697.8328
388	1.93	185.41391	246.88872	-1697.8304
389	1.935	185.42047	246.89528	-1697.8354
390	1.94	185.41962	246.89301	-1697.8307
391	1.945	185.41837	246.88768	-1697.8334
392	1.95	185.42052	246.89043	-1697.8274
393	1.955	185.41724	246.89096	-1697.8352
394	1.96	185.42378	246.89368	-1697.8425
395	1.965	185.42282	246.9026	-1697.8433
396	1.97	185.42448	246.89659	-1697.8418
397	1.975	185.4164	246.89517	-1697.8335
398	1.98	185.42467	246.89201	-1697.833
399	1.985	185.42967	246.89299	-1697.819
400	1.99	185.4183	246.89545	-1697.8223
401	1.995	185.4263	246.89003	-1697.8252
402	2	185.42409	246.89241	-1697.8186
403	2.005	185.42299	246.88918	-1697.8287
404	2.01	185.42178	246.88907	-1697.8326
405	2.015	185.42549	246.89374	-1697.825
406	2.02	185.43056	246.88374	-1697.8359
407	2.025	185.42455	246.88782	-1697.8405
408	2.03	185.42404	246.89127	-1697.832
409	2.035	185.42618	246.88687	-1697.8313
410	2.04	185.43376	246.89044	-1697.8389
411	2.045	185.43729	246.89609	-1697.8406
412	2.05	185.43063	246.89685	-1697.8322
413	2.055	185.43715	246.89305	-1697.8312
414	2.06	185.4411	246.89343	-1697.8344
415	2.065	185.4435	246.89958	-1697.8379
416	2.07	185.44286	246.89561	-1697.8387
417	2.075	185.44217	246.90373	-1697.8405
418	2.08	185.43834	246.8951	-1697.8329
419	2.085	185.43837	246.89513	-1697.8378
420	2.09	185.44617	246.89203	-1697.8347
421	2.095	185.44363	246.89854	-1697.838
422	2.1	185.45645	246.90237	-1697.8389
423	2.105	185.4429	246.9006	-1697.8401
424	2.11	185.45222	246.89679	-1697.833
425	2.115	185.45682	246.89227	-1697.827
426	2.12	185.46416	246.90184	-1697.8324
427	2.125	185.46294	246.9015	-1697.8258
428	2.13	185.45728	246.90196	-1697.8307
429	2.135	185.47215	246.89783	-1697.8202
430	2.14	185.47012	246.88832	-1697.8173
431	2.145	185.47095	246.88995	-1697.8202
432	2.15	185.46661	246.89401	-1697.8206
433	2.155	185.47266	246.89549	-1697.8256
434	2.16	185.47908	246.89641	-1697.83
435	2.165	185.4803	246.89952	-1697.8289
436	2.17	185.48276	246.89537	-1697.8274
437	2.175	185.47714	246.89398	-1697.8274
438	2.18	185.48294	246.89294	-1697.819
439	2.185	185.48286	246.88776	-1697.8182
440	2.19	185.48572	246.89075	-1697.8292
441	2.195	185.48238	246.89926	-1697.8257
442	2.2	185.49052	246.89005	-1697.8235
443	2.205	185.49747	246.88847	-1697.8245
444	2.21	185.49428	246.89101	-1697.8265
445	2.215	185.49339	246.89517	-1697.8273
446	2.22	185.50031	246.88976	-1697.8291
447	2.225	185.49936	246.89314	-1697.824
448	2.23	185.50044	246.88335	-1697.8204
449	2.235	185.50508	246.88487	-1697.823
450	2.24	185.50851	246.88661	-1697.817
451	2.245	185.50842	246.88684	-1697.8171
452	2.25	185.51022	246.88811	-1697.8167
453	2.255	185.51414	246.8876	-1697.8151
454	2.26	185.50638	246.88696	-1697.8301
455	2.265	185.51442	246.89024	-1697.8226
456	2.27	185.52948	246.89526	-1697.8198
457	2.275	185.53342	246.89163	-1697.8207
458	2.28	185.53156	246.89813	-1697.8241
459	2.285	185.53572	246.89626	-1697.8209
460	2.29	185.5291	246.90201	-1697.8254
461	2.295	185.53346	246.90021	-1697.8273
462	2.3	185.5345	246.89818	-1697.8265
463	2.305	185.541	246.89372	-1697.8314
464	2.31	185.54182	246.89731	-1697.8342
465	2.315	185.53671	246.89514	-1697.8265
466	2.32	185.53368	246.8882	-1697.8271
467	2.325	185.54114	246.89679	-1697.8281
468	2.33	185.54326	246.89334	-1697.838
469	2.335	185.53564	246.89217	-1697.8352
470	2.34	185.53717	246.88954	-1697.8397
471	2.345	185.53836	246.89493	-1697.8354
472	2.35	185.54208	246.8914	-1697.83
473	2.355	185.54019	246.89233	-1697.8175
474	2.36	185.54442	246.89139	-1697.8226
475	2.365	185.54852	246.89139	-1697.8236
476	2.37	185.54797	246.89452	-1697.824
477	2.375	185.54605	246.89798	-1697.8296
478	2.38	185.55145	246.89696	-1697.8271
479	2.385	185.56215	246.89381	-1697.8259
480	2.39	185.56532	246.89481	-1697.8251
481	2.395	185.56563	246.89821	-1697.8268
482	2.4	185.57022	246.897	-1697.8324
483	2.405	185.56799	246.89818	-1697.8391
484	2.41	185.56967	246.89699	-1697.8423
485	2.415	185.57268	246.90149	-1697.8331
486	2.42	185.57343	246.90091	-1697.8386
487	2.425	185.57436	246.89767	-1697.8312
488	2.43	185.57919	246.89598	-1697.8359
489	2.435	185.56824	246.89322	-1697.839
490	2.44	185.5788	246.89398	-1697.83
491	2.445	185.57626	246.89436	-1697.8307
492	2.45	185.57224	246.897	-1697.8285
493	2.455	185.58574	246.90141	-1697.8265
494	2.46	185.58603	246.89989	-1697.8265
495	2.465	185.57909	246.89684	-1697.8268
496	2.47	185.57643	246.90132	-1697.8267
